REM DIRINDEX 1\2,1\3,1\4,1\5\6,1\5\7,1\8
REM DIRNAME cjc115,folder01,folder02,folder03,folder04,folder05,folder06,folder07
TITLE ""
FILE "025 【025】Unit2 (0277 emission_0288 inspire).mp3" MP3
  TRACK 01 AUDIO
    TITLE "0:"
    INDEX 01 00:00:00
  TRACK 02 AUDIO
    TITLE "2:cjc115_0946"
    INDEX 01 00:00:07
  TRACK 03 AUDIO
    TITLE "0:"
    INDEX 01 00:01:21
  TRACK 04 AUDIO
    TITLE "3:cjc115_0947"
    INDEX 01 00:01:28
  TRACK 05 AUDIO
    TITLE "0:"
    INDEX 01 00:02:57
  TRACK 06 AUDIO
    TITLE "4:cjc115_0948"
    INDEX 01 00:02:71
  TRACK 07 AUDIO
    TITLE "0:"
    INDEX 01 00:06:67
  TRACK 08 AUDIO
    TITLE "2:cjc115_0949"
    INDEX 01 00:08:01
  TRACK 09 AUDIO
    TITLE "0:"
    INDEX 01 00:09:02
  TRACK 10 AUDIO
    TITLE "3:cjc115_0950"
    INDEX 01 00:09:08
  TRACK 11 AUDIO
    TITLE "0:"
    INDEX 01 00:10:27
  TRACK 12 AUDIO
    TITLE "4:cjc115_0951"
    INDEX 01 00:10:35
  TRACK 13 AUDIO
    TITLE "0:"
    INDEX 01 00:13:53
  TRACK 14 AUDIO
    TITLE "2:cjc115_0952"
    INDEX 01 00:14:60
  TRACK 15 AUDIO
    TITLE "0:"
    INDEX 01 00:16:08
  TRACK 16 AUDIO
    TITLE "3:cjc115_0953"
    INDEX 01 00:16:16
  TRACK 17 AUDIO
    TITLE "0:"
    INDEX 01 00:17:61
  TRACK 18 AUDIO
    TITLE "4:cjc115_0954"
    INDEX 01 00:18:01
  TRACK 19 AUDIO
    TITLE "0:"
    INDEX 01 00:22:42
  TRACK 20 AUDIO
    TITLE "2:cjc115_0955"
    INDEX 01 00:23:55
  TRACK 21 AUDIO
    TITLE "0:"
    INDEX 01 00:25:05
  TRACK 22 AUDIO
    TITLE "3:cjc115_0956"
    INDEX 01 00:25:07
  TRACK 23 AUDIO
    TITLE "0:"
    INDEX 01 00:27:04
  TRACK 24 AUDIO
    TITLE "4:cjc115_0957"
    INDEX 01 00:27:10
  TRACK 25 AUDIO
    TITLE "0:"
    INDEX 01 00:30:67
  TRACK 26 AUDIO
    TITLE "2:cjc115_0958"
    INDEX 01 00:32:01
  TRACK 27 AUDIO
    TITLE "0:"
    INDEX 01 00:33:22
  TRACK 28 AUDIO
    TITLE "3:cjc115_0959"
    INDEX 01 00:33:30
  TRACK 29 AUDIO
    TITLE "0:"
    INDEX 01 00:34:55
  TRACK 30 AUDIO
    TITLE "4:cjc115_0960"
    INDEX 01 00:34:63
  TRACK 31 AUDIO
    TITLE "0:"
    INDEX 01 00:39:09
  TRACK 32 AUDIO
    TITLE "2:cjc115_0961"
    INDEX 01 00:40:19
  TRACK 33 AUDIO
    TITLE "0:"
    INDEX 01 00:41:24
  TRACK 34 AUDIO
    TITLE "3:cjc115_0962"
    INDEX 01 00:41:34
  TRACK 35 AUDIO
    TITLE "0:"
    INDEX 01 00:43:39
  TRACK 36 AUDIO
    TITLE "4:cjc115_0963"
    INDEX 01 00:43:44
  TRACK 37 AUDIO
    TITLE "0:"
    INDEX 01 00:45:73
  TRACK 38 AUDIO
    TITLE "2:cjc115_0964"
    INDEX 01 00:47:09
  TRACK 39 AUDIO
    TITLE "0:"
    INDEX 01 00:48:24
  TRACK 40 AUDIO
    TITLE "3:cjc115_0965"
    INDEX 01 00:48:34
  TRACK 41 AUDIO
    TITLE "0:"
    INDEX 01 00:49:51
  TRACK 42 AUDIO
    TITLE "4:cjc115_0966"
    INDEX 01 00:49:61
  TRACK 43 AUDIO
    TITLE "0:"
    INDEX 01 00:53:06
  TRACK 44 AUDIO
    TITLE "2:cjc115_0967"
    INDEX 01 00:54:17
  TRACK 45 AUDIO
    TITLE "0:"
    INDEX 01 00:55:34
  TRACK 46 AUDIO
    TITLE "3:cjc115_0968"
    INDEX 01 00:55:48
  TRACK 47 AUDIO
    TITLE "0:"
    INDEX 01 00:57:19
  TRACK 48 AUDIO
    TITLE "4:cjc115_0969"
    INDEX 01 00:57:25
  TRACK 49 AUDIO
    TITLE "0:"
    INDEX 01 01:01:42
  TRACK 50 AUDIO
    TITLE "2:cjc115_0970"
    INDEX 01 01:02:54
  TRACK 51 AUDIO
    TITLE "0:"
    INDEX 01 01:03:67
  TRACK 52 AUDIO
    TITLE "3:cjc115_0971"
    INDEX 01 01:03:69
  TRACK 53 AUDIO
    TITLE "0:"
    INDEX 01 01:05:15
  TRACK 54 AUDIO
    TITLE "4:cjc115_0972"
    INDEX 01 01:05:26
  TRACK 55 AUDIO
    TITLE "0:"
    INDEX 01 01:08:44
  TRACK 56 AUDIO
    TITLE "2:cjc115_0973"
    INDEX 01 01:09:54
  TRACK 57 AUDIO
    TITLE "0:"
    INDEX 01 01:10:69
  TRACK 58 AUDIO
    TITLE "3:cjc115_0974"
    INDEX 01 01:11:03
  TRACK 59 AUDIO
    TITLE "0:"
    INDEX 01 01:13:00
  TRACK 60 AUDIO
    TITLE "4:cjc115_0975"
    INDEX 01 01:13:10
  TRACK 61 AUDIO
    TITLE "0:"
    INDEX 01 01:15:64
  TRACK 62 AUDIO
    TITLE "2:cjc115_0976"
    INDEX 01 01:16:69
  TRACK 63 AUDIO
    TITLE "0:"
    INDEX 01 01:18:27
  TRACK 64 AUDIO
    TITLE "3:cjc115_0977"
    INDEX 01 01:18:37
  TRACK 65 AUDIO
    TITLE "0:"
    INDEX 01 01:21:06
  TRACK 66 AUDIO
    TITLE "4:cjc115_0978"
    INDEX 01 01:21:20
  TRACK 67 AUDIO
    TITLE "0:"
    INDEX 01 01:25:13
  TRACK 68 AUDIO
    TITLE "2:cjc115_0979"
    INDEX 01 01:26:21
  TRACK 69 AUDIO
    TITLE "0:"
    INDEX 01 01:27:46
  TRACK 70 AUDIO
    TITLE "3:cjc115_0980"
    INDEX 01 01:27:51
  TRACK 71 AUDIO
    TITLE "0:"
    INDEX 01 01:29:37
  TRACK 72 AUDIO
    TITLE "4:cjc115_0981"
    INDEX 01 01:29:45
  TRACK 73 AUDIO
    TITLE "0:"
    INDEX 01 01:34:54
